Coordinates
version=1
nRows=17
nColumns=36
inDegrees=yes

Units are S.I. units (second, meters, Newtons, ...)
If the header above contains a line with 'inDegrees', this indicates whether rotational values are in degrees (yes) or radians (no).

endheader
time	pelvis_tilt	pelvis_list	pelvis_rotation	pelvis_tx	pelvis_ty	pelvis_tz	hip_flexion_r	hip_adduction_r	hip_rotation_r	knee_angle_r	knee_angle_r_beta	ankle_angle_r	subtalar_angle_r	mtp_angle_r	hip_flexion_l	hip_adduction_l	hip_rotation_l	knee_angle_l	knee_angle_l_beta	ankle_angle_l	subtalar_angle_l	mtp_angle_l	lumbar_extension	lumbar_bending	lumbar_rotation	arm_flex_r	arm_add_r	arm_rot_r	elbow_flex_r	pro_sup_r	arm_flex_l	arm_add_l	arm_rot_l	elbow_flex_l	pro_sup_l
      0.00000000	      4.07677759	     -2.90897258	     13.17921381	      1.59031857	      0.95779061	     -0.10802348	     25.21829372	     -2.21912863	      0.16312453	     28.56836216	      0.49861198	     -2.97671353	    -16.06987742	     -6.43984839	     -2.07830891	      2.50072240	      7.30909949	     11.44146440	      0.19969123	     21.48943822	      1.32964604	     -6.43984839	      0.76661990	     -0.72642332	     -5.72369629	     27.73189693	      7.40413135	     59.46457405	    110.05453370	     84.95634067	     35.22884259	      0.97343595	     70.66765328	    123.89786531	     73.00006153
      0.01666670	      4.01686982	     -3.16859398	     14.19412988	      1.59522508	      0.95724750	     -0.11102158	     24.68019566	     -3.03180530	     -2.78038096	     24.78532823	      0.43258558	     -1.87250032	    -10.47129202	     -6.71708918	     -0.45958266	      2.22991360	      6.57038587	     15.58126057	      0.27194430	     21.57011756	     -0.38501889	     -6.71708918	      0.84320056	     -1.27400127	     -7.26986821	     31.07024162	      3.25908437	     70.42339922	    116.56107699	     97.84905408	     35.09549265	     -0.76715940	     65.34317054	    126.48570212	     94.86670305
      0.03333330	      1.55429372	     -3.15111971	     15.07370530	      1.59792744	      0.95164861	     -0.11122964	     25.86503344	     -4.21266068	     -3.42691431	     21.05468184	      0.36747352	     -1.50001930	    -10.22730787	     -6.82882769	      2.66141569	      3.09790144	      7.32348023	     16.87145079	      0.29446237	     22.36209554	     -0.70126522	     -6.82882769	      4.79454186	     -2.42186895	     -9.64790415	     31.03835614	      4.45498160	     71.02154812	    116.02608999	     98.51139698	     33.89390344	     -2.59008523	     64.60805751	    127.62461763	     98.10392870
      0.05000000	      0.64933023	     -3.31030758	     15.50091626	      1.59929689	      0.95021464	     -0.11125861	     26.30339025	     -4.74202888	     -4.14117776	     20.22153125	      0.35293230	     -0.15700764	     -9.08116450	     -6.87044952	      4.28460075	      3.32965154	      7.25055933	     17.94686604	      0.31323190	     23.70454777	      0.06515986	     -6.87044952	      6.90869818	     -3.21413656	    -10.81728215	     30.66477768	      4.97477512	     70.46544950	    115.43820680	     97.40603804	     34.14880639	     -2.90762791	     64.74733478	    127.08427745	     97.32646987
      0.06666670	     -0.30066706	     -3.24435160	     15.47245908	      1.59620185	      0.94837891	     -0.11322534	     27.44847174	     -5.31709091	     -4.15439768	     20.91574942	      0.36504869	      0.88081318	     -8.17197988	     -6.92263657	      5.97143440	      3.80123852	      6.59812234	     19.16610348	      0.33451161	     24.98744229	      0.94746995	     -6.92263657	      8.69193250	     -4.00800070	    -11.40947202	     30.58679805	      5.40497513	     70.41031791	    114.85556585	     96.54638922	     34.29795085	     -2.87220185	     64.41383192	    126.75910656	     96.80700794
      0.08333330	     -1.23156937	     -3.24189708	     15.48301581	      1.59814001	      0.94538119	     -0.11237894	     28.73178865	     -5.75697059	     -4.09021003	     22.30564034	      0.38930687	      1.55388741	     -8.12641717	     -6.97627086	      7.69199571	      4.06349628	      5.75083555	     20.46926892	      0.35725614	     25.98418778	      1.89680058	     -6.97627086	     10.42681029	     -4.73650802	    -11.75083436	     30.34608270	      5.65709990	     70.19289105	    114.51377307	     94.96498316	     34.51468279	     -2.70391165	     64.22330395	    126.28246781	     95.47168989
      0.10000000	     -2.22959417	     -3.26271299	     15.65108139	      1.60006672	      0.94376672	     -0.11236002	     30.02997347	     -6.22568005	     -4.22993344	     23.81362826	      0.41562622	      2.07146298	     -8.09679992	     -7.02137934	      9.37604247	      4.20352556	      4.85599670	     21.75328142	      0.37966638	     26.70988648	      2.80359285	     -7.02137934	     12.18691820	     -5.42351373	    -11.97890742	     29.99926125	      5.74857944	     69.77208319	    114.36077554	     93.51601989	     34.59412903	     -2.56991416	     64.12719238	    126.13878542	     94.22152255
      0.11666670	     -3.45927814	     -3.43471089	     15.71514464	      1.60294710	      0.94191942	     -0.11195519	     31.53793844	     -6.55066749	     -4.36014194	     25.21321240	      0.44005357	      2.54882884	     -7.85649976	     -7.05534727	     11.23846731	      4.18950144	      3.75933408	     22.96644571	      0.40084010	     27.46344218	      3.89288336	     -7.05534727	     14.35205260	     -5.94326618	    -11.88898276	     29.38107143	      5.65855271	     69.31920954	    114.16694891	     92.49608261	     34.39052917	     -2.37336299	     64.04686166	    125.90387180	     93.50903875
      0.13333330	     -4.34021252	     -3.63754553	     15.73244670	      1.60478422	      0.94194589	     -0.11254684	     32.66790837	     -6.69807358	     -4.40011239	     26.39519264	      0.46068302	      2.82272183	     -7.69183700	     -7.09076619	     12.55740220	      4.13796929	      3.02204932	     23.82557598	      0.41583475	     27.90464038	      4.44030587	     -7.09076619	     15.92804484	     -6.22902928	    -11.88497331	     28.87686514	      5.58347497	     68.91520096	    114.10228801	     91.16896439	     34.27747151	     -2.17615193	     64.11194796	    125.75337239	     92.41421811
      0.15000000	     -5.04334321	     -3.79647236	     15.60539235	      1.60670759	      0.94250653	     -0.11234983	     33.59529359	     -6.74399304	     -4.21852173	     27.28460648	      0.47620622	      2.90429620	     -7.44423113	     -7.11877775	     13.55311424	      4.09613757	      2.28527778	     24.33700557	      0.42476088	     28.16254843	      4.75895990	     -7.11877775	     17.21957725	     -6.33192758	    -11.59393386	     28.40273475	      5.33939250	     68.64428421	    114.03996454	     90.13747524	     34.09139739	     -1.95337127	     64.15961422	    125.66077898	     91.53475676
      0.16666670	     -5.52843896	     -3.94433128	     15.47179667	      1.60747035	      0.94082003	     -0.11290549	     34.36186996	     -6.72012588	     -3.92617275	     27.97293889	      0.48821989	      2.92935245	     -7.27366631	     -7.15763735	     14.31118044	      4.03830138	      1.65704182	     24.73925907	      0.43178153	     28.33228661	      4.96042936	     -7.15763735	     18.12070003	     -6.34883427	    -11.24562710	     28.02471253	      5.07982199	     68.32572826	    114.05507601	     88.76758555	     34.09786099	     -1.65797557	     64.26880355	    125.38696120	     90.25079286
      0.18333330	     -5.81428794	     -4.05244966	     15.31877849	      1.60828372	      0.93968896	     -0.11290548	     34.88372764	     -6.65307953	     -3.51027777	     28.52371264	      0.49783270	      2.93887084	     -7.23509592	     -7.17743140	     14.81926485	      3.94448730	      1.07214881	     25.06406020	      0.43745037	     28.55605892	      5.22996479	     -7.17743140	     18.72812388	     -6.32900830	    -10.68922685	     27.87658738	      4.91769890	     67.72298851	    113.89693246	     87.93792488	     34.16532801	     -1.50964097	     64.28517963	    125.11225074	     89.62702572
      0.20000000	     -5.91960633	     -4.14794246	     15.23114505	      1.60825849	      0.93645988	     -0.11368879	     35.22472608	     -6.58331955	     -3.14251585	     29.06695554	      0.50731408	      3.13484957	     -7.21258434	     -7.20807410	     15.17111961	      3.86314935	      0.75242561	     25.39746265	      0.44326934	     28.71656315	      5.30798545	     -7.20807410	     19.04826064	     -6.25119378	    -10.30942200	     28.02582750	      4.85256294	     67.35192663	    114.28637507	     86.81282041	     34.50806437	     -1.21518587	     64.14565679	    124.84429470	     88.52218502
      0.21666670	     -5.98598108	     -4.24815655	     15.08072852	      1.60867093	      0.93596351	     -0.11359170	     35.46793630	     -6.47848311	     -2.78670200	     29.50172855	      0.51490230	      3.32574497	     -7.22133512	     -7.22111774	     15.42326596	      3.72999524	      0.43873161	     25.65566447	      0.44777582	     28.94232981	      5.48973549	     -7.22111774	     19.26122151	     -6.13892124	     -9.92226739	     27.93665678	      4.75113361	     67.05519015	    114.47312826	     86.21181640	     34.66291474	     -1.06327325	     64.08682377	    124.71176844	     87.99081949
      0.23333330	     -6.00534215	     -4.31918088	     14.95168303	      1.60844279	      0.93519140	     -0.11386944	     35.62534658	     -6.41204254	     -2.50490233	     29.89699241	      0.52180095	      3.53020560	     -7.15060391	     -7.24391415	     15.64155315	      3.62429734	      0.21154057	     25.94627966	      0.45284801	     29.08144977	      5.59887298	     -7.24391415	     19.39468440	     -6.09462430	     -9.57084912	     27.65679005	      4.81513937	     66.74770527	    114.64202552	     85.34539941	     34.83810349	     -0.86249486	     64.09332385	    124.46599691	     87.13945555
      0.25000000	     -6.09994139	     -4.38597816	     14.88334113	      1.60875319	      0.93478885	     -0.11372064	     35.85282494	     -6.37483813	     -2.27398918	     30.19910438	      0.52707380	      3.74260634	     -7.14778236	     -7.25237717	     15.79345218	      3.55967313	      0.05764420	     26.04616644	      0.45459136	     29.23968143	      5.77293060	     -7.25237717	     19.64663239	     -6.06172654	     -9.32104913	     27.59678673	      4.93654546	     66.42599553	    114.29086562	     84.47547019	     34.90982411	     -0.76784024	     64.08704126	    124.19102928	     86.31741747
      0.26666670	     -5.98957684	     -4.39194315	     14.84305061	      1.60840755	      0.93435578	     -0.11395208	     35.82024257	     -6.33016099	     -2.06085346	     30.44641815	      0.53139024	      3.97502831	     -7.13243428	     -7.26784563	     15.71205494	      3.49838541	     -0.05352226	     26.12550280	      0.45597604	     29.39210103	      5.94476696	     -7.26784563	     19.49305537	     -6.05878388	     -9.03294235	     27.52359857	      4.90986804	     66.23764564	    114.78995043	     84.14169195	     35.16461425	     -0.55124130	     64.24871386	    124.07836947	     85.92894242
